<svg xmlns="http://www.w3.org/2000/svg" viewBox="0 0 501.32 687.73"><defs><style>.cls-1,.cls-6{fill:#fdddc6;}.cls-1,.cls-15,.cls-16,.cls-2,.cls-20,.cls-4{fill-rule:evenodd;}.cls-2,.cls-3{fill:#d6aa89;}.cls-4{fill:#aa7c5b;}.cls-5{fill:#3a291d;}.cls-7{fill:#f9be72;}.cls-8{fill:#d88a3d;}.cls-9{fill:#9b581c;}.cls-10{fill:#36516e;}.cls-11{fill:#284056;}.cls-12{fill:#f63e5b;}.cls-13{fill:#132433;}.cls-14{fill:#9b072a;}.cls-15{fill:#fff;}.cls-16{fill:#648b5c;}.cls-17{fill:#4c5f2b;}.cls-18{fill:#d3c5bc;}.cls-19,.cls-20{fill:#b2a39b;}.cls-21{fill:#8e786e;}.cls-22{fill:#eaeaea;}</style></defs><title>Asset 1</title><g id="Layer_2" data-name="Layer 2"><g id="Layer_1-2" data-name="Layer 1"><path class="cls-1" d="M485.21,559.87c-60.77-50.93-140.78-63.69-142.67-85,0-.48-.12-1-.2-1.43l.68-.73L341.67,381c9.54-10.88,17-19.75,18.12-21.5,3.5-5.27,13.26-63,14.67-80.24,2.57-31.51,5.65-115.65,1.89-126.75-3.84-11.33-69.58-63-114.75-61.71-45.37,1.29-107.05,41.43-115,68.36-2.43,8.27-7.38,79.79-5.33,112.58,1.08,17.26,10.68,89.84,16.44,97.39,1,1.3,9.11,9.28,19.55,19.06h-.44l-.2,85.71C170.2,498,103.34,509.1,41,554.67c-24.78,18.13,73.13,101.18,215.61,96.47C412,646,500,572.26,485.21,559.87Z"/><path class="cls-2" d="M296.44,429.42c1.54-3,1.19-8-1.25-10-5.79-4.79-60.6-2.36-68.81,0-3,.86-6.93-4.33-7.7-5.63-11.35-19-23.09-49-25-54.86-5.7-17.19-13.28-44.58-29-65.32-4.85-6.4-4.91-55.58,8-78.68,5.5-9.83-17-71-26-54.09-7.35,13.69-3.23,85.74-5.58,99.76-.22,1.3,2.65,30.95,3.54,33s4.68,40.09,4.68,40.09,7.89,35.35,8.48,37.12,15.61,15.35,15.61,15.35l8.79,7.59-3.06-2.5L176.65,457a215,215,0,0,0,38.43,31.67c3.4,10,9,22.64,9.93,23.88,2.51,3.28,5.94,1.7,8,.62s-1-9.37-4.34-17c10.16,4.84,20.88,8.06,31.22,7.84,11.36-.24,25.66-7.07,39.23-15.64-3.77,8-10.75,23.6-8.51,25.5,3,2.57,5.52,2.44,6.3.85.61-1.24,9-23.58,12.57-33.28a359.09,359.09,0,0,0,34.65-28.12L342.5,385ZM277.67,541.65c-2.17,2.67-6.83,19.5-18.61,19.62-9,.09-11.77-8.28-17.22-10.62a3.46,3.46,0,0,0-4.33,1.67c-.83,1.5-1.67,8.93,2,10.55s6.66,3,8.25,3.54,5.33,3.22,8.88,4.26,4.42,1.67,7.55,0,7-3,9.82-4.62c4.06-2.28,10.83-21.9,9.17-24.07A3.78,3.78,0,0,0,277.67,541.65ZM396.84,572c-13.5,3.17-29-.17-42.67,1.73-4.06.56-3.39,5.79-.5,6.6,13,3.67,34.5,4.5,42.83-1C399.8,577.14,400.58,571.11,396.84,572Zm-231.17,7.17a140.3,140.3,0,0,1-35.48,0c-7.27-.89-7.27,6.33-2.06,8.67s26.54,4,32.87,0S170,578.57,165.67,579.15Zm86.6,15c0,7.67,4.38,32,4.38,49,0,3.8,6,5.33,10.09,1.67s-2.4-51.67-4.37-54.16S252.27,586.29,252.27,594.15Z"/><path class="cls-3" d="M144.14,334.82c2,0,4.33-1.24,4.79-3.31l0-.21,0-.21c-1.32-7.48-2.45-15.11-3.54-22.49q-.43-2.92-.87-5.82c-1.56-10.44-2.81-21.25-3.8-33.06l0-.55-.46-.27a.85.85,0,0,1-.33-.39c-1.44-3.11-5.32-10.35-10.15-10.35a5.65,5.65,0,0,0-3.95,1.78c-2,1.89-2.61,5.09-3,8-1,7.76.39,16,1.92,23.07a150.08,150.08,0,0,0,8.11,25.86A127.64,127.64,0,0,0,138.62,329c.18.32.36.72.56,1.14.73,1.54,1.65,3.45,3,4.22A4,4,0,0,0,144.14,334.82Z"/><path class="cls-4" d="M144.13,299.46,136,282.06l-7.36-10.86s-3.17-3.63-5.06-2-2.13,15.67,0,20.6,16.46,24,16.46,24l-4.21-11-4.35-13.94s1.65-8.11,1.08-8.68,2,1.89,2,1.89Z"/><path class="cls-5" d="M142.45,266.9c-2.26-4.88-6.26-11.45-12.33-11.85-4.11-.27-7.19,2.87-8.71,6.35-3.91,9-1.63,20.64.3,29.8a146.48,146.48,0,0,0,13.53,37.86c2,3.72,3.56,8.51,8.38,8.65,4.24.13,7-2.61,7.38-6.69.24-2.56-3.76-2.55-4,0-.29,3.13-3.55,3.21-5.18,1.54-1.22-1.25-2-3.42-2.82-5a127.09,127.09,0,0,1-5.76-12.42,149.91,149.91,0,0,1-7.67-25.06c-1.47-7-2.63-14.4-1.83-21.54.28-2.46.76-5.37,2.3-7.4,5-6.54,11.09,3.7,13,7.73,1.08,2.33,4.53.3,3.45-2Z"/><path class="cls-5" d="M147,302.84c-2-5.56-15.67-41.75-24.52-34-1.45,1.28.68,3.39,2.12,2.12,3.92-3.44,18.27,29.13,19.51,32.66.64,1.81,3.54,1,2.89-.8Z"/><path class="cls-5" d="M131.23,276.57a75.22,75.22,0,0,0,7.49,38c.85,1.73,3.43.22,2.59-1.51a72.21,72.21,0,0,1-7.08-36.45c.15-1.92-2.85-1.91-3,0Z"/><path class="cls-6" d="M372.39,334.82c-2,0-4.33-1.24-4.79-3.31l0-.21,0-.21c1.32-7.48,2.45-15.11,3.54-22.49q.43-2.92.87-5.82c1.56-10.44,2.81-21.25,3.8-33.06l0-.55.46-.27a.85.85,0,0,0,.33-.39c1.44-3.11,5.32-10.35,10.15-10.35a5.65,5.65,0,0,1,3.95,1.78c2,1.89,2.61,5.09,3,8,1,7.76-.39,16-1.92,23.07a150.08,150.08,0,0,1-8.11,25.86A127.64,127.64,0,0,1,377.9,329c-.18.32-.36.72-.56,1.14-.73,1.54-1.65,3.45-3,4.22A4,4,0,0,1,372.39,334.82Z"/><path class="cls-2" d="M372.48,299.46l8.16-17.4L388,271.2s3.17-3.63,5.06-2,2.13,15.67,0,20.6-16.46,24-16.46,24l4.21-11,4.35-13.94s-1.65-8.11-1.08-8.68-2,1.89-2,1.89Z"/><path class="cls-5" d="M377.53,268.91c1.87-4,7.53-13.9,12.72-8,1.65,1.88,2.18,4.83,2.49,7.23,1,7.49-.35,15.34-1.93,22.65a150.34,150.34,0,0,1-7.8,25.06,125.55,125.55,0,0,1-5.8,12.34c-.74,1.37-1.9,4.51-3.34,5.33-1.86,1.05-5.14-.33-5.36-2.49-.25-2.54-4.26-2.56-4,0,.41,4.15,3.35,6.59,7.54,6.69,5,.11,6.46-3.53,8.61-7.51a145.38,145.38,0,0,0,14-38.36c2-9.24,4.31-21,.58-30.12-1.42-3.47-4.25-6.61-8.27-6.67-6.34-.1-10.6,6.86-12.91,11.84-1.08,2.32,2.37,4.35,3.45,2Z"/><path class="cls-5" d="M372.49,303.63c1.24-3.53,15.59-36.1,19.51-32.66,1.45,1.27,3.58-.84,2.12-2.12-8.85-7.78-22.57,28.43-24.52,34-.64,1.82,2.26,2.61,2.89.8Z"/><path class="cls-5" d="M382.38,276.57A72.22,72.22,0,0,1,375.3,313c-.84,1.73,1.74,3.25,2.59,1.51a75.21,75.21,0,0,0,7.49-38c-.15-1.91-3.15-1.93-3,0Z"/><path class="cls-2" d="M248.34,255.87s-14.77,1.37-15.33,20c-.13,4.2-1.54,27.82-2.12,37.31-5.23,3.52-10.6,8.06-12,9.85-11.71,14.66,19.42.29,19.42.29l6.52-2.65-.6-1.19.6,0C248.93,319.54,248.34,255.87,248.34,255.87Z"/><path class="cls-4" d="M273.1,324.25l-10.61,3.54-5.9-1.18s-19.11-8.26-18.86-7.07c2.65,13,23.87,45.39,44.8-1.18C283.14,317,273.1,324.25,273.1,324.25Z"/><path class="cls-5" d="M238,310.74c-1,2.38-2.76,6.08-.89,8.4,1.42,1.75,4.65,2.7,6.62,3.55,4.72,2,11.07,5.47,16.36,5.26,5.63-.22,12.18-3.57,17.25-5.77,1.84-.8,4.75-1.72,5.87-3.57,1.69-2.79-.57-6.32-2.31-8.44s-4.45.85-2.83,2.83c2.67,3.25,1.74,3.64-1.1,5-2.25,1.07-4.59,2-6.93,2.81-3,1.12-7.31,3.29-10.63,3.14-3.79-.17-8.35-2.54-11.79-3.92-1.87-.75-4.53-1.48-6.13-2.76-.32-.26-1.42-.52-1.55-.93-.07-.23,1.68-3.92,1.92-4.51,1-2.38-2.89-3.41-3.86-1.06Z"/><path class="cls-5" d="M139.31,273.41c1,15,3.18,29.9,5.32,44.73,2.3,15.94,4.22,32.55,9,48,2.57,8.29,10.14,13.66,16.23,19.46,12.3,11.71,24.81,23.26,37.82,34.19a141.48,141.48,0,0,0,15.18,11.7c4.7,3,10.1,3.79,15.55,4.36a200.06,200.06,0,0,0,51.84-1.71c9.68-1.57,17.18-11.5,23.61-18.12,11.76-12.11,23-24.73,34-37.48,5.45-6.29,13-12.86,15.38-21.08,4.73-16.29,7.07-33.52,9.68-50.24,5.37-34.39,6.3-69.34,6.94-104.09.28-15,1.14-30.59-.87-45.53-1.3-9.65-10.79-16.45-17.81-22.24a241.68,241.68,0,0,0-49.66-31.7C294.1,95.34,275,88.92,255.38,90.88c-21.91,2.19-43.17,10.93-62.08,21.9-16.38,9.51-33.64,21.68-44,37.91-6.6,10.32-6.53,22.78-7.47,34.63-1.63,20.49-2.66,41.05-2.93,61.61-.12,8.83-.09,17.67.44,26.48.15,2.56,4.15,2.58,4,0-1.13-18.76-.38-37.67.51-56.42.79-16.65,1.61-33.44,3.76-50,1.77-13.62,11.77-23.89,21.79-32.55a179.34,179.34,0,0,1,57.76-33c19.05-6.63,38.21-9.18,57.85-3.75s37.95,15.41,54.78,26.67a225,225,0,0,1,20.9,15.66c4.33,3.69,9,7.63,12.36,12.3,2.1,3,2.23,6.35,2.49,9.89.5,6.72.56,13.48.59,20.22.08,19-.5,38-1.29,56.94-.63,15.17-1.08,30.47-2.75,45.57-1.9,17.22-4.9,34.39-8.18,51.4-1.74,9-2.41,19.75-8.41,27.07-8.77,10.71-18,21.07-27.27,31.33-9.74,10.76-19.51,22-30.62,31.35a16,16,0,0,1-9,4.24,212.23,212.23,0,0,1-23.18,1.93,180,180,0,0,1-27.47-.53c-5.68-.64-10.31-1.83-15-5.07-12.1-8.4-23-18.78-33.87-28.7-9.61-8.78-19.37-17.56-28.37-27-2.11-2.21-2.86-4.67-3.74-7.84-1.94-7-3.23-14.1-4.49-21.2-3-17.12-5.46-34.36-7.47-51.63-.66-5.65-1.31-11.31-1.68-17C143.14,270.86,139.14,270.84,139.31,273.41Z"/><path class="cls-5" d="M207.6,438c6.18,24.25,13.47,49.13,23.93,71.93.8,1.75,3.39.23,2.59-1.51-10.34-22.56-17.51-47.23-23.62-71.22-.48-1.87-3.37-1.08-2.89.8Z"/><path class="cls-5" d="M211.36,480.07a265,265,0,0,0,11.89,26.32c.89,1.71,3.48.2,2.59-1.51a257.78,257.78,0,0,1-11.59-25.6c-.69-1.78-3.59-1-2.89.8Z"/><path class="cls-5" d="M490.86,561.77C457.08,533,415.54,515,375.73,496.37c-6.86-3.21-13.75-6.42-20.39-10.08-2.92-1.61-8.07-3.74-9.68-6.9-1.49-2.92-.72-9.25-.84-12.68-.29-8.65-.46-17.3-.62-26-.34-18.87-.61-37.74-.63-56.61,0-2.57-4-2.58-4,0,0,16.9.25,33.8.53,50.7.15,9.29.32,18.57.6,27.86.16,5.33-.13,11,.77,16.3.58,3.36,3.2,5.3,5.89,7.15,5.23,3.59,11.08,6.34,16.77,9.1,18.44,9,37.21,17.21,55.52,26.44,24,12.09,47.85,25.41,68.38,42.9,1.95,1.66,4.79-1.16,2.83-2.83Z"/><path class="cls-5" d="M39.28,557.89c34.37-26.08,74.36-42.85,113-61.36a183.7,183.7,0,0,0,17.32-9c2.73-1.68,6.44-3.79,7.64-7,1.32-3.52.79-8.5.93-12.18.3-8,.47-15.94.63-23.91.36-18.09.63-36.18.65-54.27,0-2.57-4-2.58-4,0,0,15.29-.23,30.59-.5,45.88-.14,8.31-.31,16.62-.55,24.93-.16,5.48.12,11.3-.73,16.73-.47,3-3,4.41-5.56,6a159.63,159.63,0,0,1-16,8.49c-17.11,8.27-34.49,16-51.5,24.43-22,11-43.72,22.92-63.35,37.81-2,1.54,0,5,2,3.45Z"/><path class="cls-5" d="M84.43,568.18a604.07,604.07,0,0,0,83.83,1.94c13.77-.72,27.51-2,41.2-3.56,11.94-1.39,28.76-6.25,38.75,2.88,1.42,1.3,3.55-.82,2.12-2.12-8.62-7.88-20.63-6.27-31.3-4.92-15.14,1.92-30.33,3.49-45.57,4.42-29.7,1.82-59.4.93-89-1.65-1.92-.17-1.91,2.83,0,3Z"/><path class="cls-5" d="M255.87,572c6.22,3.28,11.41-1.55,16.72-4.44,7.53-4.11,16.59-3.14,24.91-3.16,14.85,0,29.76-.12,44.59.7,15.3.84,30.41,2.39,45.74,2.24,12.19-.12,24.42-.27,36.6-1,1.92-.11,1.93-3.11,0-3-11.77.69-23.59.84-35.38,1-15,.17-29.83-1.14-44.83-2.1-14.21-.91-28.49-.83-42.72-.83-6.78,0-13.78-.41-20.52.41a26.52,26.52,0,0,0-9.91,3.16c-4,2.22-8.86,7-13.69,4.44-1.71-.9-3.22,1.69-1.51,2.59Z"/><path class="cls-5" d="M309.74,443.67a471.33,471.33,0,0,1-13.6,52.86c-.59,1.84,2.3,2.63,2.89.8a471.33,471.33,0,0,0,13.6-52.86c.37-1.89-2.52-2.69-2.89-.8Z"/><path class="cls-5" d="M306.86,481.78a207.37,207.37,0,0,1-7.7,21.75c-.74,1.78,2.16,2.56,2.89.8a207.37,207.37,0,0,0,7.7-21.75c.54-1.86-2.35-2.65-2.89-.8Z"/><path class="cls-5" d="M254.29,607.21a331.8,331.8,0,0,1,4,34.63c.12,1.92,3.12,1.93,3,0a339.47,339.47,0,0,0-4.1-35.42c-.32-1.9-3.21-1.09-2.89.8Z"/><path class="cls-5" d="M259.82,598.49q2.41,18.28,3.65,36.67c.13,1.92,3.13,1.93,3,0q-1.24-18.39-3.65-36.67c-.25-1.89-3.25-1.91-3,0Z"/><path class="cls-7" d="M375.25,283.14l-.2.21c-1.24-8.19-1.42-16.72-1.59-25,0-2-.08-4.05-.14-6.07l0-1.1c-.33-11.58-.67-23.56-1.81-35.32l-.17-1.8c-.83-8.76-1.87-19.67-7-27.43-3.35-5-5.31-10.42-7.39-16.13-.51-1.4-1-2.81-1.56-4.24-6-15.81-13.25-26.55-22.81-33.79l-1-.77-1.13.61c-2.72,1.46-6.51,3-9,3-1.77,0-1.88-.73-2-1.32l-.54-3.57-2.73,2.35-.89.77c-2,1.73-4.26,3.7-6.51,3.7h-.28c-1.71-.12-2-.92-2.1-1.18l-1-2.69-2.18,1.86c-1.77,1.51-3.37,2.31-4.61,2.31a2.43,2.43,0,0,1-1-.19l-1.57-.66-.9,1.45c-1.26,2-3.43,3.65-4.94,3.65a1.78,1.78,0,0,1-.75-.16l-2.08-.94-.65,2.19a8.63,8.63,0,0,1-.49,1.34,3.66,3.66,0,0,1-3.57,2.18,8.14,8.14,0,0,1-4.43-1.51l-1.62-1.13-1.15,1.61a2.18,2.18,0,0,1-.23.29,2.31,2.31,0,0,1-1.65.8,5.33,5.33,0,0,1-3.1-1.62l-1.71-1.49-1.26,1.9a.72.72,0,0,1-.56.18,1.65,1.65,0,0,1-.4-.05,4.46,4.46,0,0,1-2.07-1.47l-1.37-1.5-1.47,1.39a7.25,7.25,0,0,1-3.28,1.28,17.17,17.17,0,0,1-2.68.21,23.07,23.07,0,0,1-7.2-1.24l-1.58-.52-.8,1.46a1.2,1.2,0,0,1-1,.57h-.2a4.67,4.67,0,0,1-2.3-.71l-1.3-.77-1.09,1a7.47,7.47,0,0,1-3.61.71,5.17,5.17,0,0,1-.67,0,22,22,0,0,1-6.57-2.48l-.95-.48-.93.52a10.59,10.59,0,0,1-5.17,1.2,16.45,16.45,0,0,1-9.32-3l-.58-.43-.72,0c-1.2.07-2.41.1-3.61.1a67.14,67.14,0,0,1-11.62-1l-1.4-.25-.69,1.25c-.13.24-.44.8-2,.8-2.48,0-6.61-1.55-11.31-4.26l-1.26-.72-1.08,1a6.14,6.14,0,0,1-4.32,1.47,15,15,0,0,1-4-.62l-2.07-.58-.43,2.11a15.85,15.85,0,0,1-1.56,4.29l-1,1.79,1.52.79-.28.84.58.58c-.24,2-.39,4.06-.44,6.28l0,1,.28.22c-3.4,3.13-6.62,6.5-9.75,9.77l-2.54,2.66,2.76,1.1a15.15,15.15,0,0,1,4.13,2.48l.08.2.09.1a33,33,0,0,1-7.27,14.83l-.42.51,0,.55c-3.28,6.15-4.23,13.56-5.07,20.11l-.06.51c-1.11,8.68-1.68,17.36-2.21,26.24-.23,3.92-.41,7.93-.57,11.81-.49,11.44-1,23.26-3.15,34.52l-.09-.11-.64.13c-.18-12.38-2.13-24.91-4-37-.79-5.12-1.62-10.42-2.28-15.58-1.35-10.46-2.42-19.19-2.88-28.28,0-.59-.07-1.19-.1-1.81a44.34,44.34,0,0,1,.13-9.8l.4-2.3-1.85,0a11.71,11.71,0,0,1-1-3.91l-.49-6.29-3.41,5.74c-2.42-7.39-1.33-14.53,3.24-21.22l.48-.7-.17-.83c-1.33-6.5,1.49-14,4.32-18.51a18.15,18.15,0,0,1,16-8.94h.77l5.54.19-4.15-3.69a53.24,53.24,0,0,1-8.32-9.32,47.26,47.26,0,0,1-8.2-20.18c-.48-3.37-.8-7.61.94-10.54l.57-1-.51-1c-4.14-8-5.31-14.32-3.49-18.78,1.35-3.29,4.32-5.65,9.09-7.2l1.26-.41.11-1.33a15.16,15.16,0,0,1,.92-4.22c1.88-4.87,5.9-5.89,8.94-5.89a17.11,17.11,0,0,1,6.75,1.5l2.74,1.19.06-3a57.61,57.61,0,0,1,1.79-13.42c2.17-8.3,6.72-14.82,12.82-18.34a28.48,28.48,0,0,1,14.44-3.54,49,49,0,0,1,9.42,1,36.61,36.61,0,0,0-6.15,2.3L197,20.36a17.21,17.21,0,0,1,1.76-.09,12.82,12.82,0,0,1,4,.6l2.26.74.36-2.46a21.16,21.16,0,0,1,.73-2.73l.42-1.25.57-1.19A21.41,21.41,0,0,1,221.2,2.35a9.56,9.56,0,0,0-2.13,5.05l-.84,5.71,4.19-4C227.49,4.36,232,2,236.12,2c.32,0,.64,0,1,0,4.1.36,7.18,2.68,8.23,6.05a6,6,0,0,0-2.75-.57,17.41,17.41,0,0,0-7,1.85c-.27.14-.51.29-.76.43L229.57,13l5.86.68a13.94,13.94,0,0,1,8.08,3.86c3.88,3.66,7,8.79,9.48,15.7l1.15,3.18,2.23-2.54a8.7,8.7,0,0,1,6.49-2.8,7.26,7.26,0,0,1,6.52,3.46l1.93,3.42,1.63-3.57c.24-.52.49-1,.77-1.56,2-3.69,5.86-8.57,10.3-10.16.19-.07.48-.17.67-.22l.11.13a5.41,5.41,0,0,1,.07,1.37c0,.36,0,.71,0,1,.12,2.14.26,4.09.44,6l.67,6.9,3.1-6.19a29.54,29.54,0,0,1,2.42-4l1,3.45,2.4-3.85A16.92,16.92,0,0,1,297,24.4a42.81,42.81,0,0,0,1.59,19.2l3.91-.45c.23-3.72,1.75-7.27,3.46-10.63.79,7.52,4.08,14,6.92,18.8l3.63,6.17.09-7.16a15,15,0,0,1,.34-3c.62,10.91,9.3,18,17,24.3a85.48,85.48,0,0,1,8.79,7.82,28.52,28.52,0,0,1,6.16,10.25l3.88-.5c0-.34,0-.68,0-1l0-.74a15.13,15.13,0,0,0-.52-5.68l.39-.26c6.65,4.12,7.2,17.25,5.48,28.28a45,45,0,0,1-3.35,11.57l-2.38,5.26,5.12-2.66a41.43,41.43,0,0,1,13.66-3.94,21.1,21.1,0,0,1,2.39-.14c7.31,0,12.29,4.2,13.82,11.57a10.32,10.32,0,0,0-6.44-2.12,15,15,0,0,0-3.07.34l-6.2,1.31,5.83,2.49a32.62,32.62,0,0,1,11.4,8.1,26.89,26.89,0,0,0-6.79-.89l-3.35,0,1.57,3c7.74,14.63,8.3,33.15,7.82,49.33-.9,30.4-6.38,60.11-12.43,90.4Z"/><path class="cls-8" d="M374.66,279.93c-.44-3.72-.72-7.81-.89-12.88l-.07-2,1.64,1.15a12.17,12.17,0,0,0,2.8,1.6l.81.29-.16.84q-1.06,5.55-2.16,11.08Z"/><path class="cls-8" d="M142.15,275.52c-.49-8.14-1.64-16.4-2.81-24.12l-.18-1.17,1.18,0a28.42,28.42,0,0,1,2.8-.91c.59-.17,1.17-.34,1.75-.53l1.38-.48-.06,1.46a257.55,257.55,0,0,1-2.09,25.81Z"/><path class="cls-8" d="M377.92,266.62a10.8,10.8,0,0,1-1-.64l-2.61-1.73-.53-.27-.09-.63q0-1.9-.08-3.79c0-2-.08-4-.14-6l-.15-5.41,1.73,1.54a34.65,34.65,0,0,1,5.46,6.17.6.6,0,0,0,.14.14l.49.37L381,257q-.8,4.46-1.64,8.92l-.25,1.33Z"/><path class="cls-8" d="M379.92,253.52a36.39,36.39,0,0,0-6.3-6.21l-.37-.29v-.47q-.14-4.73-.32-9.46l-.09-2.28,1.74,1.48a39.52,39.52,0,0,1,8.08,9.61l.2.32-.06.37q-.53,3.24-1.09,6.48l-.38,2.2Z"/><path class="cls-8" d="M138.89,248.47l-.58-3.77,1-.13.18,0c1.24-.54,2.55-1.19,4.24-2.11l.41-.22.87-.48,1.56-.87-.27,6.44-.76.22a24.48,24.48,0,0,1-2.69.88,22,22,0,0,0-2.54.82l-1.18.49Z"/><path class="cls-8" d="M135.62,225.51c-.13-1.06-.26-2.12-.39-3.18L135,220.5l.85-.22a.46.46,0,0,0,.22-.13c3.05-3,6.58-6.18,11.11-9.94l1.93-1.6-.3,2.49c-.26,2.15-.49,4.39-.7,6.67l-.08.82-.81.09a.45.45,0,0,0-.21.08,69.91,69.91,0,0,0-6.77,5c-.31.26-.67.53-1,.83-.61.48-1.31,1-1.92,1.58l-1.42,1.31Z"/><path class="cls-8" d="M384.51,221c-2.54-4.53-6.42-8.54-10.18-12.42-1.33-1.38-2.6-2.68-3.79-4l-.3-.24-.14-.44a59.19,59.19,0,0,0-2.68-10.82l-1-2.62,2.4,1.42,1.89,1.1c6.4,3.72,13,7.57,16,15.5a.55.55,0,0,0,.2.26l.48.33,0,.58c-.29,3.57-.65,7.26-1.06,11L386,223.7Z"/><path class="cls-8" d="M386,204.61c-3.46-5.74-9-9-14.78-12.49-1.62-1-3.3-2-5-3a.51.51,0,0,0-.17-.07l-.44-.1-.38-.73c-.61-1.12-1.31-2.18-2-3.2a31.3,31.3,0,0,1-2.83-4.9l-1.29-3,2.74,1.74c8.17,5.2,17.92,7,25.49,8.06l.05,1,.06-1,1,0v1c0,2.17-.09,4.32-.16,6.43-.11,3-.27,6.25-.5,9.82l-.21,3.18Z"/><path class="cls-8" d="M133,199.3c-.39-4.58-.54-9.31,1-12.91l.38-.91.91.37.15,0a.52.52,0,0,0,.24-.07c7.82-4.25,14-10.33,19.68-16.19l.42-.43.58.17a14.4,14.4,0,0,1,5.13,2.69l.47.39-.13.6c-2.73,12.7-14.34,24.13-27.59,27.16l-1.12.26Z"/><path class="cls-8" d="M384.08,158.06c-6.91-4.95-15.58-5.88-24-6.77-3.8-.41-7.74-.83-11.49-1.62h-.12l-.14,0-.73.21-.39-.65c-.55-.9-1.13-1.81-1.75-2.73l-1.58-2.36,2.71.85a19.74,19.74,0,0,0,5.92.77,64.45,64.45,0,0,0,7.29-.55l.15,0c2.93-.34,5.93-1,8.83-1.6a84.6,84.6,0,0,1,10.08-1.74l.64-.06.32.56A59.52,59.52,0,0,1,385.63,157l.68,2.66Z"/><path class="cls-8" d="M130.09,156.7c-.16-6.09,2.57-11.84,3.76-14,3.67-6.79,9.67-10.53,16.88-10.53a23,23,0,0,1,4.63.49h.23l.43-.08.35.26a52.61,52.61,0,0,0,8.45,5c.93.44,1.83.83,2.68,1.16l.75.29-.13.8c0,.28-.1.55-.16.84l-.18.78h-1.05c-12.4,0-26.75,6.44-34.88,15.66l-1.68,1.9Z"/><path class="cls-8" d="M282,146.49a5.84,5.84,0,0,1-4.36-2l-.41-.43.18-.56c.24-.74.43-1.51.62-2.22s.31-1.19.46-1.68a75.2,75.2,0,0,0,2.59-11.75,106.37,106.37,0,0,0,.39-25.15l2-.38c1,3.31,1.75,6.26,2.35,9a85.06,85.06,0,0,1,2.05,17.11,73.87,73.87,0,0,1-.46,9.32c0,.12,0,.31,0,.54a19.87,19.87,0,0,1-.58,3.87,4.07,4.07,0,0,1-3.14,4.06l-.1,0A7,7,0,0,1,282,146.49Z"/><path class="cls-8" d="M273.23,146.13c-1.42,0-2.7-1.19-4-2.52l-.11-.09-.43-.27,0-.51c-1.64-25.9-3.51-55.25-8.56-83.63l-.39-2.23A171.16,171.16,0,0,0,255.2,36.4l-.12-.4.23-.42,0,0A8.57,8.57,0,0,1,262.95,31a7.18,7.18,0,0,1,7.4,6.13.46.46,0,0,0,.06.18l.28.39-.13.46c-3.8,13.25.9,28.93,5.6,42.59l.81,2.32v.15a.62.62,0,0,0,0,.13A122.39,122.39,0,0,1,280.91,119,81.61,81.61,0,0,1,278.5,136c-.12.49-.25,1-.38,1.59-.54,2.3-1.2,5.17-2.45,7A2.94,2.94,0,0,1,273.23,146.13Z"/><path class="cls-8" d="M244.92,145.59a4.61,4.61,0,0,1-1.16-.21,6.08,6.08,0,0,1-1.8-1l-.22-.16-.11-.26a.64.64,0,0,0-.09-.16c-21.33-26.62-35-53.7-40.64-80.51-2.29-10.9-2.9-19.61-1.9-27.44.42-3.31,1.15-7.48,3.06-10.34l1.82.65a39.1,39.1,0,0,0,.48,8.37l.17,1.31a197,197,0,0,0,4.65,23.72,294.83,294.83,0,0,0,20.93,58.56c5.26,10.68,10.35,18.73,16,25.34l.35.41-.15.52a.55.55,0,0,0,0,.15h-1l.33.91a1.58,1.58,0,0,1-.61.11Z"/><path class="cls-8" d="M351.81,144.73c-3.37,0-5.77-.58-7.54-1.84l.74-1.8a22.54,22.54,0,0,0,3.75.31c4.31,0,9-1.2,14.33-3.67,1.25-.58,2.68-1.37,4.19-2.21,2-1.09,4.18-2.32,6.4-3.28l.46-.2.44.25.14.06a32.87,32.87,0,0,1,12,6.86l2.42,2.17-3.22-.43a28.41,28.41,0,0,0-3.76-.24q-.79,0-1.59,0l-.35,0-.29-.21a.36.36,0,0,0-.22-.07.68.68,0,0,0-.42.16l-.24.2-.31,0a72.32,72.32,0,0,0-8.28,1.38l-.21,0a91.55,91.55,0,0,1-13.7,2.21l-1,.06C354.42,144.64,353.12,144.73,351.81,144.73Z"/><path class="cls-8" d="M192.73,142.11c-3.39,0-12.09-4.58-12.17-4.62l-.25-.14-.14-.25a.53.53,0,0,0-.1-.14C164.89,122.79,130,87.89,133.5,70.09c.84-4.2,3.68-7.23,8.45-9l1.27-.47L143.3,62a37.57,37.57,0,0,0,1.52,8.24c3,10.29,8.77,19.71,13.5,26.76,11.43,17,25.31,31.87,36.12,42.89l.37.38-.1.51C194.64,141.11,194.33,142.11,192.73,142.11Z"/><path class="cls-8" d="M208.06,141.34a65.59,65.59,0,0,1-11.52-1l-.35-.06-.25-.3,0-.06c-19.58-19.88-38-39.74-47.81-63.45-3.41-8.25-7.7-22.73,2-27a10.05,10.05,0,0,1,4.05-.81,17.84,17.84,0,0,1,8,2.26l.59.29,0,.6c.56,19.26,9,38,16,50.3a150.08,150.08,0,0,0,30.36,37.47l1.93,1.73Z"/><path class="cls-8" d="M308.31,137.23a2,2,0,0,1-1.51-.62,2.66,2.66,0,0,1-.54-2.1.46.46,0,0,0,0-.16l-.13-.51.35-.4a34.25,34.25,0,0,0,3.26-4.31c5.27-8.4,8-19.75,7.79-32-.26-13-5-24.59-9.14-33.22l-.9-1.89c-2-4.1-4-8.34-5.69-12.66l-.43-1.1,1.15-.24a.66.66,0,0,0,.42-.26.44.44,0,0,0,0-.36c-1.11-4.81.34-9,1.73-12.06l1.28-2.84.61,3.05c1.45,7.22,5.1,13.69,8.83,19.6l.14.22C321.54,65,327.21,74,329.76,85c2.73,11.84,1.71,23.41-2.95,33.48A43.33,43.33,0,0,1,318,131.08C318,131.14,311.47,137.23,308.31,137.23Z"/><path class="cls-8" d="M322.23,135.35a2.79,2.79,0,0,1-2.19-.84,2.86,2.86,0,0,1-.58-2.32.35.35,0,0,0,0-.2l-.28-.61.46-.49a46.76,46.76,0,0,0,12.09-25.41c1.72-11.86-.82-25-7.14-37.14-1.05-2-2.29-4.13-4-6.86l1.62-1.16c3,3.75,7.07,7.1,11,10.34,7.16,5.91,14.57,12,16.74,21.21,2.13,9-.39,19.81-6.74,28.84a40.13,40.13,0,0,1-11.63,11l-.06,0-.07,0-.09.05-.07.06-.08,0C330.21,132.48,325.21,135.35,322.23,135.35Z"/><path class="cls-8" d="M203.2,19.91a13.81,13.81,0,0,0-4.32-.65,18.22,18.22,0,0,0-1.86.1l-.54-1.9a35.75,35.75,0,0,1,7.64-2.65l1.73-.39-.56,1.68a22.13,22.13,0,0,0-.78,2.93l-.18,1.25Z"/><path class="cls-9" d="M180.66,136.24c-9.59-9-68.65-64.48-37.58-74.54,1.83-.59,1-3.49-.8-2.89-36.37,11.78,25.28,69.3,36.25,79.55,1.41,1.32,3.54-.8,2.12-2.12Z"/><path class="cls-9" d="M196.56,139.25c-18.1-18.39-37.62-38.94-47.64-63.17-2.7-6.53-7.86-21.59,1.47-25.67,3.64-1.59,7.93-.33,11.25,1.44,1.7.91,3.22-1.68,1.51-2.59-7-3.74-16.57-3.75-19.86,4.79-2,5.19-1,11.24.48,16.43,2.79,9.71,8,18.71,13.64,27,10.68,15.91,23.63,30.23,37,43.85,1.36,1.38,3.48-.74,2.12-2.12Z"/><path class="cls-9" d="M213.31,140.69c-20.53-17.57-37-40.73-44.61-66.82-4.78-16.3-7.84-40.67,6.52-53.46,8-7.11,19.23-7,29.23-4.74V12.78C180.45,17.64,169,42,178.18,63.52c.76,1.77,3.22.24,2.47-1.51a33.68,33.68,0,0,1,24.18-46.34,1.51,1.51,0,0,0,0-2.89c-9.11-2.13-19.16-2.54-27.52,2.3-7.24,4.19-11.7,11.64-13.77,19.57-5.94,22.74,3.15,48.35,14.31,68a152,152,0,0,0,33.37,40.19c1.46,1.25,3.59-.86,2.12-2.12Z"/><path class="cls-9" d="M229.63,141.81c-9.46-10-17.22-21.86-24.66-33.43-7.9-12.3-15.6-25-21.31-38.5-.75-1.77-3.33-.24-2.59,1.51,5.89,13.93,13.88,27,22.08,39.7,7.36,11.37,15,23,24.36,32.84,1.33,1.41,3.44-.72,2.12-2.12Z"/><path class="cls-9" d="M189.63,23.75c4.45-2.53,11.22-3.78,15.56-.5l.36-2.74c-5,1.27-7.07,7.11-8,11.6-1.9,8.91-1,18.37.5,27.26,5.45,31.77,22.16,61.09,42.09,86,1.21,1.51,3.32-.63,2.12-2.12C223.51,119.84,208,92.66,201.79,63.11c-1.85-8.8-3-18.12-1.89-27.11.51-4,1.65-11.4,6.45-12.61a1.52,1.52,0,0,0,.36-2.74c-5.19-3.92-13.29-2.52-18.59.5a1.5,1.5,0,0,0,1.51,2.59Z"/><path class="cls-9" d="M247.88,142.61c-16.16-18.49-25.13-43.81-32.23-66.92a276.18,276.18,0,0,1-8.16-32.87c-1-5.57-3.22-14-1-19.54.72-1.79-2.18-2.57-2.89-.8-1.62,4-.68,9.35-.17,13.51a198.89,198.89,0,0,0,4.67,23.84,295.12,295.12,0,0,0,21,58.76c4.57,9.27,9.82,18.33,16.65,26.14,1.27,1.46,3.39-.67,2.12-2.12Z"/><path class="cls-9" d="M264.18,142.47a310.76,310.76,0,0,0-15.39-44.78c-5.73-13.6-12.18-27-16.68-41.07-3.87-12.11-10.86-37.52,4.38-45.44,1.86-1,6.91-2.66,8.56-.78.8.92,2.72.23,2.56-1.06C246.93,4,242.56.54,237.25.08c-7.45-.66-14.14,5.3-18.89,10.3l2.56,1.06c-.15-2.93.07-6.93,2.85-8.67A1.51,1.51,0,0,0,222.62,0,23.55,23.55,0,0,0,203.42,18.9c-.35,1.89,2.54,2.7,2.89.8a20.66,20.66,0,0,1,17.1-16.78L222.26.17c-3.75,2.36-4.55,7.13-4.33,11.26a1.52,1.52,0,0,0,2.56,1.06c3.4-3.58,7.32-7.27,12.12-8.83,4.6-1.49,11.28,0,12,5.67l2.56-1.06c-1.89-2.16-6-1.73-8.45-1.13a17.54,17.54,0,0,0-11,8.85c-4.09,7.54-3.73,16.83-2.46,25,2.39,15.46,8.84,30,15,44.22,8.19,19,16,37.93,21.07,58,.47,1.87,3.36,1.08,2.89-.8Z"/><path class="cls-9" d="M231.89,14.63C247.8,12.19,253.17,37,255.71,47.95c7.29,31.4,8.93,64.25,11,96.32.12,1.92,3.12,1.93,3,0-1.8-28.48-3.66-57.19-8.68-85.32-2.47-13.84-5.27-32.66-16.12-42.89a15.89,15.89,0,0,0-13.78-4.32c-1.9.29-1.09,3.18.8,2.89Z"/><path class="cls-9" d="M256.1,36.05c2.8-5.6,12-5.57,13.17,1.25.33,1.9,3.22,1.09,2.89-.8-1.61-9.35-14.75-9.79-18.65-2-.86,1.72,1.73,3.24,2.59,1.51Z"/><path class="cls-9" d="M288.66,35a25.71,25.71,0,0,1,4.15-7.53L290.3,26a30.59,30.59,0,0,0,.19,10.72c.32,1.67,3,1.27,2.95-.4A15,15,0,0,1,298.86,24l-2.51-1.46C292,43.8,306.91,60.81,312.71,80a64.29,64.29,0,0,1,1,33.55,50.07,50.07,0,0,1-5.39,14c-1,1.62-7.76,11.2-10.59,8.85-1.47-1.23-3.61.89-2.12,2.12,5.16,4.29,12.57-5.07,14.92-8.81,5.92-9.44,8.16-21.5,7.94-32.51-.24-12-4.12-22.9-9.24-33.63-6-12.57-12.85-25.78-9.93-40.15a1.51,1.51,0,0,0-2.51-1.46,17.92,17.92,0,0,0-6.3,14.38l2.95-.4a25.57,25.57,0,0,1-.19-9.13c.2-1.27-1.46-2.79-2.51-1.46a30.77,30.77,0,0,0-4.92,8.86c-.65,1.82,2.25,2.61,2.89.8Z"/><path class="cls-9" d="M319.49,57.46a13.84,13.84,0,0,1-.65-12.78l-2.8-.76c-2.42,23.17,28.1,28.22,32.81,48.17,2.26,9.55-1.08,20.21-6.59,28A39,39,0,0,1,330.8,130.9c-1.34.82-11,6.37-10.44,1.4.22-1.91-2.78-1.9-3,0-1.11,9.6,12.24,2.94,15.57.82a43,43,0,0,0,18.19-24.85c3-11,.93-21.66-6.87-30.11C334.81,67.92,317.32,60.4,319,43.92c.15-1.44-2.21-2.1-2.8-.76A17.08,17.08,0,0,0,316.9,59c.93,1.69,3.53.18,2.59-1.51Z"/><path class="cls-9" d="M155.87,130.7c-9.34-1.92-17.74,1.17-22.9,9.33-3.6,5.7-6.14,14-4.43,20.71.47,1.87,3.37,1.08,2.89-.8-1.37-5.4.65-12.08,3.21-16.82,4.25-7.86,11.66-11.35,20.43-9.54,1.88.39,2.69-2.5.8-2.89Z"/><path class="cls-9" d="M167,140.67c-21.07-.21-50.35,18.19-42,42.69.62,1.82,3.52,1,2.89-.8-7.73-22.6,19.94-39.09,39.08-38.89a1.5,1.5,0,0,0,0-3Z"/><path class="cls-9" d="M167.14,145.59c-10.69,2.06-20.89,9.69-28.32,17.32-6.2,6.36-13.23,16-8.76,25.14.85,1.73,3.44.22,2.59-1.51-4.28-8.76,5-18.61,10.89-24,6.7-6.15,15.3-12.28,24.41-14,1.89-.37,1.09-3.26-.8-2.89Z"/><path class="cls-9" d="M132.55,184.52c-2.44,4.69-1.68,11.28-1.43,16.34.48,9.51,1.68,19,2.9,28.43,2.26,17.49,6.11,35.33,6.28,53a1.5,1.5,0,0,0,3,0c-.17-16.88-3.78-34-6-50.65-1.22-9.31-2.41-18.64-3-28-.35-5.12-1.65-12.82.85-17.62.89-1.71-1.7-3.23-2.59-1.51Z"/><path class="cls-9" d="M153.29,187.81c-2.92,5.43-4,11.79-4.86,17.82-1.26,8.58-1.91,17.24-2.46,25.89-1.08,16.86-.76,34.34-4.13,50.95-.38,1.88,2.51,2.69,2.89.8,3.17-15.61,3.05-32,4-47.83.52-8.71,1.09-17.44,2.2-26.1.85-6.65,1.73-14,5-20,.92-1.7-1.67-3.22-2.59-1.51Z"/><path class="cls-9" d="M330.65,133.6c11.25,8.24,17.92,20.6,22.77,33.39,2.77,7.28,4.85,14.3,9.16,20.77,5.24,7.86,6,19.22,6.89,28.31,1.18,12.06,1.49,24.19,1.84,36.29.31,10.82.18,21.89,2,32.6.32,1.9,3.21,1.09,2.89-.8-1.66-10-1.53-20.45-1.82-30.6-.36-12.7-.66-25.43-1.93-38.08-.92-9.21-1.88-19.52-6.38-27.79-1.61-2.95-3.68-5.24-5-8.42-1.87-4.66-3.36-9.46-5.17-14.14-5.11-13.22-12.12-25.62-23.75-34.13-1.56-1.14-3.06,1.46-1.51,2.59Z"/><path class="cls-9" d="M352,82.23c7.65,4.34,6.45,20,5.37,27.11-1.67,11-7.24,23.86-19.68,25.4-1.89.23-1.91,3.24,0,3,13.91-1.73,20.61-15,22.58-27.6,1.33-8.51,2.33-25.34-6.75-30.5A1.5,1.5,0,0,0,352,82.23Z"/><path class="cls-9" d="M378.23,141.7c9.29,15.41,9.62,35.17,9,52.6-1,30.09-6.58,60-12.47,89.45-.38,1.89,2.51,2.69,2.89.8,6-30.1,11.71-60.74,12.62-91.5.52-17.58-.12-37.35-9.47-52.86a1.5,1.5,0,0,0-2.59,1.51Z"/><path class="cls-9" d="M353.88,127.91c3.46-3.64,10.39-5.55,15.11-6.49,9.46-1.88,16.35,1.88,17.83,11.78l2.51-1.46c-5.62-5.58-12.63-3-18.89,0-9.7,4.74-19.72,10.92-30.56,5.63-1.73-.84-3.25,1.74-1.51,2.59,8.45,4.12,16.83,2.44,25.06-1.37,6.58-3,17.11-11.41,23.79-4.77a1.51,1.51,0,0,0,2.51-1.46c-1.5-10.07-8.53-15.49-18.63-14.34-6.05.69-14.92,3.1-19.32,7.72-1.33,1.4.79,3.52,2.12,2.12Z"/><path class="cls-9" d="M374.31,133.3a32,32,0,0,1,15.21,10.36l1.46-2.51c-6.92-2.45-13.83-1.39-20.83.11a91.57,91.57,0,0,1-13.76,2.24c-4,.24-10.14,1-13-2.71-1.16-1.51-3.76,0-2.59,1.51,4.33,5.65,12.9,4.6,19.17,3.88,10.08-1.16,20.12-5.71,30.18-2.14,1.55.55,2.32-1.47,1.46-2.51a34.72,34.72,0,0,0-16.53-11.13c-1.84-.59-2.63,2.31-.8,2.89Z"/><path class="cls-9" d="M347.94,151.58c12.49,2.62,27.27.65,37.27,10,1.41,1.32,3.53-.8,2.12-2.12-10.55-9.91-25.43-8.06-38.6-10.81-1.88-.39-2.69,2.5-.8,2.89Z"/><path class="cls-9" d="M353,162.11c6.05,1.89,12.34,2.23,18.51,3.53a33,33,0,0,1,8,2.61,19.71,19.71,0,0,1,4.47,3c.84.77,2.15,3.6,2.45,2.49a1.5,1.5,0,0,0,2.89.8c1.12-4.13-7.16-8.4-10-9.6-8.09-3.46-17.18-3.06-25.52-5.67-1.85-.58-2.64,2.32-.8,2.89Z"/><path class="cls-9" d="M358.43,177.71c8.35,6.39,18.47,8.79,28.72,10.17,1.89.25,2.7-2.64.8-2.89-10-1.35-19.84-3.62-28-9.87-1.53-1.17-3,1.43-1.51,2.59Z"/><path class="cls-9" d="M365.17,190.83c8,5.16,17,8.45,20.61,18,.68,1.79,3.58,1,2.89-.8-4-10.52-13.09-14.07-22-19.8-1.63-1-3.13,1.55-1.51,2.59Z"/><path class="cls-9" d="M369.07,206c5.41,6,13.18,12.33,15.48,20.29a1.5,1.5,0,0,0,2.89-.8C385,217,377,210.28,371.19,203.9c-1.3-1.43-3.42.69-2.12,2.12Z"/><path class="cls-9" d="M372,235.62a38.08,38.08,0,0,1,9.78,11c1,1.64,3.6.14,2.59-1.51A41.93,41.93,0,0,0,373.56,233c-1.54-1.16-3,1.44-1.51,2.59Z"/><path class="cls-9" d="M371.92,248.56a33.35,33.35,0,0,1,7.64,7.9c1.1,1.57,3.7.08,2.59-1.51a37.77,37.77,0,0,0-8.72-9c-1.55-1.15-3.05,1.45-1.51,2.59Z"/><path class="cls-9" d="M373.23,266c1.86,1.24,3.79,3,6.13,3.06,1.93.07,1.93-2.93,0-3a4.75,4.75,0,0,1-2.27-1.09l-2.34-1.56c-1.61-1.07-3.12,1.53-1.51,2.59Z"/><path class="cls-9" d="M166.8,155.13c-10.72,9.72-19.34,21.95-32.28,29-1.7.92-.18,3.51,1.51,2.59,13.18-7.15,22-19.53,32.88-29.43,1.43-1.3-.69-3.42-2.12-2.12Z"/><path class="cls-9" d="M160.93,171.91c-2.43,13.45-14.84,25.06-28.28,27.57-1.9.35-1.09,3.24.8,2.89,14.37-2.67,27.77-15.27,30.37-29.66.34-1.89-2.55-2.7-2.89-.8Z"/><path class="cls-9" d="M148.17,206.74c-4.65,3.79-9.34,7.78-13.6,12a1.5,1.5,0,0,0,2.12,2.12c4.27-4.22,9-8.21,13.6-12,1.5-1.22-.64-3.33-2.12-2.12Z"/><path class="cls-9" d="M146.38,217.91a70.6,70.6,0,0,0-6.87,5c-1.66,1.38-4.67,3.29-5.08,5.53-.35,1.89,2.54,2.7,2.89.8.15-.79,1.29-1.53,1.86-2.06q1.34-1.24,2.76-2.41a64,64,0,0,1,5.95-4.31c1.62-1,.11-3.64-1.51-2.59Z"/><path class="cls-9" d="M139.82,245.45c1.47-.64,2.9-1.38,4.32-2.14a16.08,16.08,0,0,0,3.39-2.14c1.41-1.32-.71-3.44-2.12-2.12a16.8,16.8,0,0,1-3.1,1.84c-1.31.7-2.63,1.38-4,2-1.76.77-.24,3.36,1.51,2.59Z"/><path class="cls-9" d="M140.66,251.18c1.72-.72,3.57-1,5.3-1.73a1.55,1.55,0,0,0,1-1.85,1.51,1.51,0,0,0-1.85-1c-1.72.72-3.57,1-5.3,1.73a1.55,1.55,0,0,0-1,1.85,1.51,1.51,0,0,0,1.85,1Z"/><path class="cls-9" d="M275.93,83.62a121.6,121.6,0,0,1,3.89,35.32,80.34,80.34,0,0,1-2.38,16.85c-.63,2.44-1.25,6.17-2.69,8.28s-3,.79-4.89-1.15c-1.35-1.38-3.47.74-2.12,2.12,2.36,2.42,5.64,5.15,8.84,2.1,1.57-1.5,2.16-5.13,2.8-7.19A75.82,75.82,0,0,0,282,128c2.09-14.78.63-30.8-3.18-45.21a1.5,1.5,0,0,0-2.89.8Z"/><path class="cls-9" d="M127.89,184.44q1.59-2.75,3.3-5.42c1-1.63-1.55-3.14-2.59-1.51q-1.71,2.67-3.3,5.42a1.5,1.5,0,0,0,2.59,1.51Z"/><path class="cls-9" d="M166.26,148.7a62.61,62.61,0,0,0-.5,7.11,1.5,1.5,0,0,0,3,0,62.61,62.61,0,0,1,.5-7.11c.24-1.91-2.76-1.89-3,0Z"/><path class="cls-9" d="M155.79,170.25a13.38,13.38,0,0,1,5.13,2.69c1.46,1.24,3.59-.87,2.12-2.12a16.88,16.88,0,0,0-6.45-3.46,1.5,1.5,0,0,0-.8,2.89Z"/><path class="cls-9" d="M167.39,147a16.82,16.82,0,0,0,2.77-8.1c.07-1.93-2.93-1.93-3,0a14,14,0,0,1-2.36,6.58c-1.1,1.59,1.5,3.09,2.59,1.51Z"/><path class="cls-9" d="M178.45,137c-4,4.34-13.11-.9-17.13-3.29a51.63,51.63,0,0,1-17.2-16.65,47.44,47.44,0,0,1-6.65-16.53c-.62-3.3-1.52-8.92.84-11.83,1.21-1.49-.9-3.62-2.12-2.12-2.82,3.47-2.5,8.72-1.91,12.87a49.45,49.45,0,0,0,8.54,21,54.92,54.92,0,0,0,21.49,18.21c4.74,2.23,12.06,4.93,16.26.4,1.31-1.41-.81-3.54-2.12-2.12Z"/><path class="cls-9" d="M179.32,139.14c3.51,2.09,16.29,9.19,17.3,1.41.25-1.91-2.75-1.89-3,0-.3,2.33-11.78-3.4-12.79-4a1.5,1.5,0,0,0-1.51,2.59Z"/><path class="cls-9" d="M195.22,142.13a68.2,68.2,0,0,0,16.62,1.11c1.92-.11,1.93-3.11,0-3a64.89,64.89,0,0,1-15.83-1c-1.89-.36-2.7,2.53-.8,2.89Z"/><path class="cls-9" d="M210.89,142.53c4.61,4.06,13.57,5.76,18.61,1.91,1.52-1.16,0-3.76-1.51-2.59-3.95,3-11.39,1.72-15-1.44-1.44-1.27-3.57.84-2.12,2.12Z"/><path class="cls-9" d="M227.52,144.68c2.6,1.3,5.16,2.69,8.08,3.12,1.67.25,8.32-.24,5.86-3.44-1.16-1.51-3.77,0-2.59,1.51q.52-1.41-.3-1.07a3.51,3.51,0,0,1-1,.14,7.12,7.12,0,0,1-1.17,0A14,14,0,0,1,233,144a42.71,42.71,0,0,1-4-1.92c-1.72-.86-3.24,1.72-1.51,2.59Z"/><path class="cls-9" d="M240.8,146.09a6.8,6.8,0,0,0,4.41,1.48,3.06,3.06,0,0,0,3-3,1.5,1.5,0,0,0-3,0c0-.09,0,0-.32,0a3.62,3.62,0,0,1-.91-.17,5.3,5.3,0,0,1-1.65-.91,1.51,1.51,0,0,0-2.05.54,1.54,1.54,0,0,0,.54,2.05Z"/><path class="cls-9" d="M246.46,145.49a24,24,0,0,0,12.18,1.59c2-.32,6.09-1.63,4.92-4.38-.75-1.77-3.15-.24-2.4,1.51,0,.07.29.15.29.22v-1.51c-1,1.69-5.27,1.41-6.86,1.32a24.31,24.31,0,0,1-7.23-1.65c-1.8-.69-2.68,2.21-.89,2.89Z"/><path class="cls-9" d="M262.31,144.5a7.5,7.5,0,0,0,3.73,2.83c1.63.41,3.35-.32,3.49-2.13s-2.85-1.92-3,0v.19l.2-.76c.16-.36.55,0,0-.23a3.79,3.79,0,0,1-.74-.4,9.43,9.43,0,0,1-1.54-1.62c-1.23-1.49-3.34.64-2.12,2.12Z"/><path class="cls-9" d="M286.45,141.43c3.05,5.13,8.7,1,10.71-2.8,4.8-9.14,6.62-19.58,6.5-29.83-.28-25.22-12-48.35-15.75-73-.56-3.65-.86-7.29-1.06-11-.06-1.08.23-2.63-.51-3.55-1-1.23-1.7-1-3-.53-4.83,1.73-9.07,6.76-11.39,11.11-8,14.92-1.91,34.41,3.19,49.24,3.47,10.08,7.34,20.07,9.61,30.51a84.77,84.77,0,0,1,2,16.91,72.71,72.71,0,0,1-.45,9.19,22.82,22.82,0,0,1-.64,4.36,3.12,3.12,0,0,1-2.45,3.28,5,5,0,0,1-5.33-2,1.5,1.5,0,0,0-2.12,2.12c3.24,3.21,9.73,4.7,12.23-.36,1.6-3.24,1.52-8.52,1.69-12.08A78.82,78.82,0,0,0,289,119c-2.15-16.35-9-31.34-13.74-47-4.42-14.69-8.32-35.87,6-46.51.73-.54,1.58-.94,2.3-1.49.91-.71,1.48-.17.82-.86s-.29,6.24-.17,7.43c.26,2.66.64,5.31,1.08,8,1.92,11.33,5.42,22.31,8.58,33.33,3.53,12.32,6.76,24.92,6.77,37.82a65.23,65.23,0,0,1-2.53,18.61c-.24.81-6,16.85-9.1,11.67a1.5,1.5,0,0,0-2.59,1.51Z"/><path class="cls-9" d="M304.16,134.6c-.24,2.81,1.3,4.47,4.1,4.67,3.5.25,6.46-2.66,8.95-4.79,8.47-7.24,13.82-17.9,15.41-28.85,1.88-13-1.23-26.25-7.25-37.75C319,55.77,308.61,45,307.84,30.75c-.08-1.41-2.06-2.14-2.8-.76-3,5.73-5.64,11.46-4.11,18,.44,1.88,3.33,1.08,2.89-.8-1.34-5.78,1.17-10.74,3.81-15.71l-2.8-.76c.5,9.3,4.74,17.25,9.61,25,5.92,9.4,11.7,18.52,14.24,29.5s1.88,22.56-2.88,32.83a42.65,42.65,0,0,1-8.58,12.3c-.68.68-10.52,9.4-10.07,4.22.16-1.92-2.84-1.91-3,0Z"/><path class="cls-10" d="M478.8,550.66c-4.16-3.07-30.42-23.52-59.62-37.88C411,532.39,254.73,597.43,115,503.19c-23.81,10.94-58.62,27.73-94.82,58.33-21.23,17.94-31.07,45.79-2.55,67,85.53,63.68,334.76,89.21,458.59,8.81C505.32,618.48,512.8,575.75,478.8,550.66Z"/><path class="cls-11" d="M107,513.63c5.84,3.25,9.6,9.24,13.81,12.92s16,10.89,19.77,13.16,11.41,4.11,13.47,8.44,1,5.84-2.8,5.84-23.79-10.53-30.55-16.26-17.57-16.5-17.85-18.59C102.39,515.3,105.52,512.78,107,513.63Z"/><path class="cls-11" d="M302.88,566.13c-2.08,0-5.49.07-8.2.12a3.61,3.61,0,0,0-3.58,4.08l.36,2.49a6.09,6.09,0,0,0,6.88,5.05s17.49-1.43,28.72-3.8c.18,0,.36-.06.53-.11l25.93-6.92.11,0L374,558.38a3.54,3.54,0,0,0,1.86-4.81h0a3.72,3.72,0,0,0-4.55-1.84L349,559.4l-.07,0-23.28,5.82-.16,0Z"/><path class="cls-12" d="M329.68,639.58l3.81,44s37.41-6.07,49.62-8.7C410.22,669,428,660.72,428,660.72l-2.84-34.36-46.61,10.38Z"/><path class="cls-13" d="M418.18,512.78c19.85,12,40.36,24.11,58,39.28,1.92,1.65,4.74-1.14,2.8-2.8-17.92-15.4-38.66-27.71-58.81-39.9-2.19-1.32-4.18,2.1-2,3.42Z"/><path class="cls-13" d="M21.61,562.92c13.53-12.7,30-22.5,45.92-31.94A547.67,547.67,0,0,1,116,504.9c2.31-1.07.3-4.49-2-3.42a550.64,550.64,0,0,0-49.71,26.8c-15.75,9.41-32.07,19.22-45.52,31.84-1.86,1.75.94,4.54,2.8,2.8Z"/><path class="cls-13" d="M114.29,504.47c45.11,34,101.37,48.7,157.27,49.33,42,.47,87-5.47,125.56-23,6-2.71,11.95-5.78,17-9.95,2.85-2.33,6.09-5.45,6.24-9.39.07-1.91-2.9-1.91-3,0-.12,3-3.25,5.57-5.37,7.29a71.73,71.73,0,0,1-14.54,8.6c-15.79,7.48-32.92,12.28-50,15.92-48.18,10.31-99.48,10.72-147.34-1.46-30.46-7.75-59.3-21-84.44-39.91-1.53-1.15-3,1.43-1.5,2.56Z"/><path class="cls-13" d="M302.88,568.11a124.67,124.67,0,0,0,49.45-7.53c2.37-.87,1.35-4.7-1.05-3.82a121.79,121.79,0,0,1-48.4,7.39c-2.55-.13-2.54,3.83,0,4Z"/><path class="cls-13" d="M325.57,576A104.44,104.44,0,0,0,363,564.76c2.26-1.18.26-4.6-2-3.42a99.14,99.14,0,0,1-35.46,10.72c-2.51.27-2.53,4.23,0,4Z"/><path class="cls-13" d="M115.61,524a74.86,74.86,0,0,0,24,17.41c2.3,1.05,4.31-2.36,2-3.42a72.09,72.09,0,0,1-23.22-16.79c-1.73-1.88-4.52.93-2.8,2.8Z"/><path class="cls-13" d="M105.65,524.64a79.76,79.76,0,0,0,16,15.16c2.07,1.49,4.05-1.94,2-3.42a76.23,76.23,0,0,1-15.23-14.54c-1.59-2-4.37.82-2.8,2.8Z"/><path class="cls-14" d="M327.74,640.2a407.47,407.47,0,0,0,3.73,42.73c.36,2.51,4.17,1.44,3.82-1.05a397.56,397.56,0,0,1-3.59-41.68c-.09-2.54-4.05-2.55-4,0Z"/><path class="cls-14" d="M329.68,641.56c32.34-.83,65.32-1.86,96-13.29l-2.51-1.91c.94,11.45,2.28,22.87,2.84,34.36.12,2.54,4.08,2.55,4,0-.56-11.48-1.9-22.9-2.84-34.36a2,2,0,0,0-2.51-1.91c-30.35,11.32-62.91,12.33-94.93,13.15-2.54.07-2.55,4,0,4Z"/><path class="cls-14" d="M332.27,664.86c17.13.9,34.56-1.35,51.49-3.69,14.43-2,29.74-3.75,43.58-8.53,2.39-.83,1.36-4.65-1.05-3.82-13.44,4.64-28.26,6.38-42.27,8.35-17,2.39-34.54,4.64-51.75,3.73-2.55-.13-2.54,3.83,0,4Z"/><path class="cls-2" d="M338.28,256.87c-1.19-7.22-5.9-9.43-5.9-9.43l-7.07-2.36-8.25-1.18-9.43-1.18-7.07,1.18-10.61,2.36s-5.85,2.95-10.61,10.61c-4.64,7.47-7.53,8.55-4.85,11.79s6.24-.23,9.51-.82,16.64-6.25,16.64-6.25h10.7l11.89,3.54,5.94,5.9s5,3.67,7.13,0C341,262.77,338.62,258.93,338.28,256.87Z"/><polygon class="cls-15" points="324.14 263.94 315.88 262.76 298.2 262.76 297.02 273.38 299.38 275.73 307.63 276.91 317.06 275.73 322.96 273.38 326.5 267.48 324.14 263.94"/><polygon class="cls-16" points="317.06 261.59 306.45 262.77 300.56 262.77 301.74 269.85 307.63 273.38 313.53 272.2 318.24 266.31 317.06 261.59"/><path class="cls-17" d="M300,264.26c.15,5.23,3.23,9.42,8.79,9.35,4.65-.06,9.37-3,10.43-7.71.28-1.25-1.64-1.79-1.93-.53-.83,3.65-4.33,5.93-7.94,6.22-4.64.37-7.22-2.93-7.35-7.32,0-1.28-2-1.29-2,0Z"/><path class="cls-5" d="M286,268.44a45.84,45.84,0,0,1,22.15-4.73c5.59.18,12.62,1.13,16.63,5.49,1.75,1.9,4.57-.93,2.83-2.83-4.46-4.86-11.79-6.22-18.09-6.6A50.11,50.11,0,0,0,284,265c-2.3,1.16-.28,4.61,2,3.45Z"/><path class="cls-5" d="M297.41,274.83a10.5,10.5,0,0,1,1.85-9.75c1.65-2-1.16-4.8-2.83-2.83a14.65,14.65,0,0,0-2.88,13.64c.68,2.48,4.54,1.43,3.86-1.06Z"/><path class="cls-5" d="M295.85,278c9.89,1.08,26.49,1,32.08-9.21,1.24-2.26-2.21-4.28-3.45-2-4.78,8.71-20.29,8.14-28.62,7.23-2.56-.28-2.54,3.72,0,4Z"/><path class="cls-5" d="M294.4,276.41a29.69,29.69,0,0,0,16.47,17.32c1.75.77,3.28-1.82,1.51-2.59-7-3.05-12.49-8.26-15.09-15.52-.65-1.8-3.55-1-2.89.8Z"/><path class="cls-5" d="M286.36,258.13c12.1-2.67,29.07-3.14,40.19,3,1.69.94,3.2-1.65,1.51-2.59-11.93-6.65-29.54-6.21-42.5-3.35-1.88.42-1.09,3.31.8,2.89Z"/><path class="cls-2" d="M246.11,264.63c-.41-2.46-2.26-5.24-4.5-8.2-5.45-7.19-17.88-10.17-17.88-10.17l-10.61-2.36L206,242.72l-9.43,1.18-8.25,1.18-7.07,2.36s-10.4,10.91-3.9,23.58c1.93,3.76,7.13,0,7.13,0l5.94-5.9,11.89-3.54H213s1.39.8,3.38,1.9h0s2.72,9.17,1.15,13.66c-4.42,12.67-19.95,15.44-16.51,16.51,12.5,3.88,26.53-10.61,29.48-9.43S248,269.77,246.11,264.63Z"/><polygon class="cls-15" points="215.47 262.76 197.79 262.76 189.54 263.94 187.18 267.48 190.72 273.38 196.61 275.73 206.04 276.91 214.3 275.73 216.65 273.38 215.47 262.76"/><polygon class="cls-16" points="207.22 262.77 196.61 261.59 195.43 266.31 200.15 272.2 206.04 273.38 211.94 269.85 213.12 262.77 207.22 262.77"/><path class="cls-17" d="M212.68,264.26c-.14,4.73-3.3,7.73-8.06,7.3-3.39-.31-7.93-2.61-7.22-6.66.22-1.26-1.71-1.8-1.93-.53-.91,5.22,3.94,8.58,8.62,9.14,6.08.73,10.42-3.2,10.59-9.24a1,1,0,0,0-2,0Z"/><path class="cls-5" d="M229.68,265a50.11,50.11,0,0,0-25.54-5.21c-6.29.38-13.62,1.74-18.09,6.6-1.74,1.89,1.08,4.73,2.83,2.83,4-4.37,11-5.31,16.63-5.49a45.85,45.85,0,0,1,22.15,4.73c2.29,1.16,4.32-2.29,2-3.45Z"/><path class="cls-5" d="M220.12,275.89a14.65,14.65,0,0,0-2.88-13.64c-1.66-2-4.48.87-2.83,2.83a10.5,10.5,0,0,1,1.85,9.75c-.68,2.49,3.18,3.55,3.86,1.06Z"/><path class="cls-5" d="M217.82,274c-8.34.91-23.85,1.48-28.62-7.23-1.24-2.26-4.69-.24-3.45,2,5.59,10.19,22.2,10.29,32.08,9.21,2.53-.28,2.56-4.28,0-4Z"/><path class="cls-5" d="M216.38,275.61c-2.61,7.26-8.11,12.47-15.09,15.52-1.76.77-.24,3.36,1.51,2.59a29.69,29.69,0,0,0,16.47-17.32c.65-1.82-2.24-2.6-2.89-.8Z"/><path class="cls-5" d="M228.11,255.24c-13-2.86-30.57-3.29-42.5,3.35-1.69.94-.18,3.53,1.51,2.59,11.12-6.19,28.09-5.72,40.19-3,1.88.42,2.68-2.48.8-2.89Z"/><path class="cls-7" d="M341,251.76c-8.1-5-18.44-7.5-30.75-7.5a116.5,116.5,0,0,0-28.23,3.8c-2.48-2.25-5-8-4.22-11,.7-2.82,5.19-4.31,8.17-5.29a65.32,65.32,0,0,1,15.38-3l.24,0c1.24-.09,2.26-.15,3.2-.18l1.56,0c3.61,0,4.29.45,4.87,3.2l.36,1.72,1.75-.14c.82-.06,1.67-.1,2.54-.1a45.38,45.38,0,0,1,17.85,4l-.2.19-.56.52-.07.76s-.26,1.29-.26,1.29l.93.76C337,243.43,340.5,246.93,341,251.76Z"/><path class="cls-9" d="M282.92,247.55c-2.16-1.88-5.43-8.13-4-10.89s6.79-3.88,9.46-4.63a70.26,70.26,0,0,1,12.29-2.27,54.77,54.77,0,0,1,5.59-.29c3,0,3.69-.09,4.13,3.4.09.73.62,1.61,1.5,1.5a42.14,42.14,0,0,1,21.78,3.82l-.69-1.69c.28-1.16-1.38,1.06-1.75,1.45a1.53,1.53,0,0,0,.3,2.36c4.07,3.12,8.39,6.89,8.47,12.41l2.26-1.3c-17.12-11.13-42-9.09-60.82-4.25-1.87.48-1.08,3.37.8,2.89,18.07-4.64,42.1-6.73,58.51,3.94a1.51,1.51,0,0,0,2.26-1.3c-.09-6.7-5-11.18-10-15l.3,2.36c.71-.75,2.27-1.71,2.53-2.78a1.52,1.52,0,0,0-.69-1.69c-6.81-3.24-15.74-5.13-23.29-4.23l1.5,1.5c-.77-6.12-2.91-6.55-8.71-6.38a68.63,68.63,0,0,0-19.3,3.32c-3.38,1.12-8.6,2.82-9.57,6.74s2,10.55,5,13.13C282.25,250.94,284.38,248.82,282.92,247.55Z"/><path class="cls-9" d="M287.66,246.57c-1-4.53-1.46-12,2.66-15.27,1.52-1.19-.62-3.3-2.12-2.12-5,3.9-4.69,12.69-3.43,18.19.43,1.88,3.33,1.08,2.89-.8Z"/><path class="cls-9" d="M293.82,245.74c-.29-6,3.2-13.13,8.33-16.26,1.65-1,.14-3.6-1.51-2.59-6,3.67-10.16,11.81-9.82,18.85.09,1.92,3.09,1.93,3,0Z"/><path class="cls-9" d="M302.2,244.74c1.46-4.46,5.79-9.39,10.46-10.48,1.88-.44,1.08-3.33-.8-2.89-5.71,1.33-10.78,7.15-12.56,12.58-.6,1.84,2.29,2.63,2.89.8Z"/><path class="cls-9" d="M315.51,245.81c5.86-3.27,10.94-5.73,17.85-5.62l-1.5-1.5.52-.92c-1.62,1-.12,3.63,1.51,2.59a1.88,1.88,0,0,0,1-1.67,1.52,1.52,0,0,0-1.5-1.5c-7.4-.12-13.07,2.5-19.37,6-1.69.94-.17,3.53,1.51,2.59Z"/><path class="cls-7" d="M173.76,251.76c8.1-5,18.44-7.5,30.75-7.5a116.5,116.5,0,0,1,28.23,3.8c2.48-2.25,5-8,4.22-11-.7-2.82-5.19-4.31-8.17-5.29a65.32,65.32,0,0,0-15.38-3l-.24,0c-1.24-.09-2.26-.15-3.2-.18l-1.56,0c-3.61,0-4.29.45-4.87,3.2l-.36,1.72-1.75-.14c-.82-.06-1.67-.1-2.54-.1a45.38,45.38,0,0,0-17.85,4l.2.19.56.52.07.76s.26,1.29.26,1.29l-.93.76C177.76,243.43,174.24,246.93,173.76,251.76Z"/><path class="cls-9" d="M233.94,249.67c2.92-2.55,5.73-8.83,5-12.74-.75-4.19-6.13-6-9.64-7.13a69.11,69.11,0,0,0-18.75-3.29c-6-.24-8.46,0-9.27,6.35l1.5-1.5c-7.55-.9-16.49,1-23.29,4.23a1.52,1.52,0,0,0-.69,1.69c.26,1.07,1.82,2,2.53,2.78l.3-2.36c-5,3.82-9.86,8.3-10,15A1.51,1.51,0,0,0,174,254c16.42-10.68,40.44-8.59,58.51-3.94,1.87.48,2.67-2.41.8-2.89-18.86-4.84-43.7-6.89-60.82,4.25l2.26,1.3c.07-5.51,4.41-9.29,8.47-12.41a1.53,1.53,0,0,0,.3-2.36c-.37-.39-2-2.63-1.75-1.45l-.69,1.69a42.09,42.09,0,0,1,21.78-3.82c.87.1,1.41-.78,1.5-1.5.4-3.16.77-3.34,3.62-3.4a51.5,51.5,0,0,1,5.51.23A70.31,70.31,0,0,1,226.33,232c2.66.75,7.53,1.78,9.17,4.31,1.82,2.81-1.36,9.19-3.68,11.21C230.36,248.82,232.49,250.94,233.94,249.67Z"/><path class="cls-9" d="M230,247.37c1.27-5.5,1.57-14.29-3.43-18.19-1.5-1.17-3.64.93-2.12,2.12,4.12,3.21,3.7,10.73,2.66,15.27-.43,1.88,2.46,2.68,2.89.8Z"/><path class="cls-9" d="M223.92,245.74c.34-7-3.81-15.18-9.82-18.85-1.65-1-3.16,1.58-1.51,2.59,5.13,3.13,8.62,10.26,8.33,16.26-.09,1.93,2.91,1.93,3,0Z"/><path class="cls-9" d="M215.43,243.95c-1.77-5.43-6.85-11.24-12.56-12.58-1.88-.44-2.68,2.45-.8,2.89,4.67,1.09,9,6,10.46,10.48.6,1.83,3.49,1,2.89-.8Z"/><path class="cls-9" d="M200.74,243.22c-6.3-3.52-12-6.15-19.37-6a1.51,1.51,0,0,0-1.5,1.5,1.88,1.88,0,0,0,1,1.67c1.63,1,3.14-1.56,1.51-2.59l.52.92-1.5,1.5c6.91-.12,12,2.34,17.85,5.62,1.69.94,3.2-1.65,1.51-2.59Z"/><path class="cls-2" d="M272.43,369.26,263,370.44h-8.25s-6.78-2.65-8.25-1.18-3.88,5.7-3.54,9.43c.3,3.24,32.28,5.89,33-2.36C276.28,372.81,272.43,369.26,272.43,369.26Zm41.27-25.94c-2.65-4.42-4.72-2.06-5.9-1.18a3.71,3.71,0,0,0-1.18,3.54c1.18,4.9,2.16,7,1.18,14.15-.37,2.69,6.71,2.85,8.84-1.18C318.61,354.93,316.35,347.74,313.7,343.32Z"/><path class="cls-5" d="M216.81,354c28.3,6,58.63,4.54,86.78-1.64,2.51-.55,1.45-4.41-1.06-3.86-27.41,6-57.1,7.45-84.66,1.64-2.51-.53-3.58,3.33-1.06,3.86Z"/><path class="cls-5" d="M301.24,346.93c3.74,2.2,3.88,6.76,2.33,10.41-1,2.34,2.45,4.38,3.45,2,2.4-5.66,2-12.49-3.77-15.89-2.22-1.31-4.24,2.15-2,3.45Z"/><path class="cls-5" d="M214.38,344.79c-2.13,2-2.6,5.43-2.95,8.15-.31,2.46-.77,5.55.31,7.88s4.53.3,3.45-2c-.43-.92,0-4,.16-5.26.22-1.78.44-4.62,1.85-5.92,1.89-1.75-.94-4.58-2.83-2.83Z"/><path class="cls-5" d="M241.8,370.1c4.44,2.51,10.41,2.51,15.35,2.54a70.5,70.5,0,0,0,18.91-2.07c2.48-.68,1.43-4.54-1.06-3.86a64.91,64.91,0,0,1-16.55,1.92c-4.59,0-10.5.34-14.63-2-2.24-1.27-4.26,2.19-2,3.45Z"/><path class="cls-18" d="M367,292c-7.94,19-40.58,43.42-48.43,45.24-1.44.33-20.84-10.05-29.18-14.38-1.75-.91-8.13-1.83-9.64-.56-10.58,8.9-22.4,9.27-32.45,4.49-4.41-2.1-8.89-5.35-13.68-4.37-1.53.31-15.29,7.52-20.78,10.4-4.25,2.23-10.12,3.79-14.67,2.25-7.19-2.44-51.5-44.61-57.51-74.68l-1.19-2.11c.06,5.15.21,9.89.46,14,1.09,17.39,10.77,90.54,16.59,98.15,2.73,3.57,58.67,56.93,70.14,61.26,15,5.67,60.48,1.88,66.62-.13,9.6-3.14,63.76-65.85,67.07-70.84,3.53-5.32,13.38-63.52,14.8-80.87l.94-13.82C375.14,279.93,370.52,283.58,367,292Zm-55.23,83.88a7.51,7.51,0,0,1-1.65,3.9,7.84,7.84,0,0,1-4,1.81,111.41,111.41,0,0,1-32.54,2.55c0-3.26.69-4.4,0-7.57-.76-3.33-3.68-2.21-6.71-2.14l-22.38.5-.1,0a36.71,36.71,0,0,1-.15,10.43c-10,.56-21.21-1.9-30.7-5.23a6.2,6.2,0,0,1-3.08-1.86,6,6,0,0,1-.91-2.56c-1.7-9.41-3.25-23.4,1.09-31.93a4.12,4.12,0,0,1,1.34-1.73,4.18,4.18,0,0,1,2.62-.34c3,.28,6,.81,9,1.21a318.41,318.41,0,0,0,82.8-.54,3.18,3.18,0,0,1,2.12.18,3.08,3.08,0,0,1,1,1.36C314.35,353.77,313.85,365.18,311.75,375.92Z"/><path class="cls-19" d="M172.26,386h0l50.89,43.9a20.53,20.53,0,0,0,3.5,1.89c15,5.67,60.48,1.88,66.62-.13a12,12,0,0,0,2.94-1.71c1.78-3,1.51-8.33-1.06-10.44-5.85-4.82-61.14-2.38-69.42,0-3,.86-7-4.36-7.77-5.67-12.18-20.36-23.67-50.46-25.27-55.29-3.6-10.85-7.95-25.73-14.59-40.47-15.38-15.88-33.79-39.2-37.47-57.61l-.89-1.59c0,.2-.06.4-.09.58-.22,1.31,2.68,31.19,3.57,33.27s4.73,40.4,4.73,40.4,8,35.62,8.55,37.41C157.38,371.64,163.7,377.87,172.26,386Z"/><path class="cls-20" d="M247.28,326.83c-2.88-1.37-5.79-3.22-8.79-4.08,5.3,13.61,22.86,34.27,40.8-.06C268.83,331.24,257.19,331.55,247.28,326.83Z"/><path class="cls-20" d="M273.59,382.82c.14-2.29.54-3.53-.07-6.21-.76-3.33-3.68-2.21-6.71-2.14l-21.4.48a16.25,16.25,0,0,0-.89,2,30.29,30.29,0,0,1,0,5.54C248.35,384.73,266.21,386.18,273.59,382.82Z"/><path class="cls-20" d="M317.45,361.63c2-3.72-.29-10.91-2.95-15.33-2-3.29-3.63-2.82-4.83-2,3,6.32,3.86,13.27,3.51,20.28A6.17,6.17,0,0,0,317.45,361.63Z"/><path class="cls-21" d="M365.69,291.29c-4.24,9.71-11.94,17.74-19.62,24.84-7,6.52-14.7,12.81-23.09,17.53-2.78,1.56-4,2.43-6.94,1.16-4.09-1.79-8-3.91-12-6-6.49-3.35-15.84-10.67-23.7-8.38-2.37.69-4.15,2.8-6.27,4a27.5,27.5,0,0,1-11.48,3.77c-7.45.63-13.23-2.33-19.74-5.4-3.76-1.78-7.48-2.81-11.4-1.17-4.07,1.7-8,3.92-11.9,5.95-8,4.16-16.79,9.66-25,3.4A148.8,148.8,0,0,1,177,314.77a200.68,200.68,0,0,1-23.22-28.94,101,101,0,0,1-8.56-15.8c-1.71-4.1-2.33-8.61-4.49-12.46a1.51,1.51,0,0,0-2.8.76c.25,18.46,2.68,36.73,5.25,55,2.46,17.46,4.4,35.82,9.76,52.69a18.78,18.78,0,0,0,5.1,8.32c4.83,4.88,9.83,9.59,14.83,14.3,13.39,12.6,26.93,25.23,41.39,36.61,4.07,3.2,8.33,6.86,13.34,8.45,8.71,2.76,18.63,2.61,27.66,2.56a270,270,0,0,0,29.54-1.71c4.54-.53,8.75-.83,12.51-3.59C310,421.69,320.51,408.7,331,397.17c10-11,20-22,29.21-33.67,2.45-3.11,3.29-6.65,4.23-10.48,2.2-9,3.86-18.07,5.48-27.15,2.94-16.52,5.89-33.2,7-50l.67-9.79c.13-1.93-2.84-1.91-3,0a42.11,42.11,0,0,1-3.85,15.21c-1.63,3.36-3.56,6.54-5,10-.76,1.75,1.82,3.28,2.59,1.51,1.78-4.1,4.21-7.88,6-12a46,46,0,0,0,3.32-14.71h-3c-1,14.48-2.61,28.7-4.91,43-1.57,9.81-3.28,19.61-5.2,29.36-1.29,6.55-2.18,13.91-4.78,20.12-1.3,3.1-4,5.66-6.15,8.21-4.86,5.78-9.83,11.49-14.83,17.15-11.37,12.88-22.86,25.8-35.29,37.67-3.12,3-6.8,7.24-11,8.66-6.52,2.2-14.6,2-21.39,2.39a215.71,215.71,0,0,1-31,0c-6.51-.55-12.34-1.53-17.75-5.25C208.44,418,196,406,183.73,394.62q-8.93-8.23-17.68-16.66c-2.74-2.65-6.34-5.37-8.48-8.57-2.84-4.25-3.52-10.74-4.55-15.62-1.92-9.06-3.44-18.2-4.86-27.35-2.65-17-5.13-34.2-6.54-51.4-.46-5.55-.59-11.13-.66-16.7l-2.8.76c2.06,3.66,2.69,8.18,4.33,12.1a99.39,99.39,0,0,0,7.37,14A192.09,192.09,0,0,0,170.39,312a187.15,187.15,0,0,0,20,19.56c5.61,4.62,10.32,6.91,17.91,4.72,4.89-1.41,9.38-4.28,13.88-6.6,3.6-1.86,8.23-5.25,12.31-5.8,4.36-.58,8.3,2.48,12.06,4.24a34,34,0,0,0,8.53,2.78A29.71,29.71,0,0,0,271.83,329c2.78-1.18,5-2.93,7.58-4.48,3.15-1.92,6.72-1.4,10,.08,4.66,2.12,9.14,4.79,13.69,7.14,4.1,2.11,8.19,4.33,12.45,6.11,2.07.86,3.14,1.08,5.25.26,9-3.51,17.33-10.9,24.5-17.21,8.93-7.87,18.18-17,23-28.09C369,291,366.46,289.52,365.69,291.29Z"/><path class="cls-21" d="M310.3,375.52c-1.5,6.45-13.24,6.41-18.47,6.91a117.26,117.26,0,0,1-18.28.25l1.5,1.5c.13-4.08,1.49-10.57-4-11.39-3.64-.54-8,.26-11.65.35-4.44.1-10.3,1.28-14.62.37a1.52,1.52,0,0,0-1.9,1.45,48.88,48.88,0,0,1-.15,10.43l1.5-1.5a78,78,0,0,1-25.43-3.59,25.78,25.78,0,0,1-4.87-1.58c-3.2-1.84-3.17-4.45-3.61-7.45a90.16,90.16,0,0,1-1-10.25,45.06,45.06,0,0,1,.91-11.67c.52-2.22.9-4.33,3-5.44,2.46-1.29,5.48-.14,8.14.24,7,1,14,1.69,21,2.13a327.54,327.54,0,0,0,46.83-.43q5.39-.44,10.77-1.08a34.88,34.88,0,0,1,5.19-.68c3.43.14,3.82,2,4.78,5,2.73,8.55,1.94,17.73.32,26.41-.35,1.89,2.54,2.7,2.89.8,1.31-7,2.12-14.24,1.13-21.38-.54-3.89-1.62-13.06-6.46-14.07-2.9-.6-6.56.75-9.47,1.08q-6.26.72-12.54,1.14-12.16.85-24.37.79c-8.05,0-16.1-.34-24.13-1-3.81-.3-7.62-.68-11.42-1.16s-8.15-1.72-12-1.53c-5.31.25-6.43,6.88-7.08,11.18-1,6.35-.48,12.87.39,19.21.37,2.7.35,6.52,2.17,8.75s5.26,2.8,7.79,3.58a81.43,81.43,0,0,0,27.05,4,1.55,1.55,0,0,0,1.5-1.5,48.88,48.88,0,0,0,.15-10.43l-1.9,1.45c2.41.51,5.47,0,8-.09l10.26-.23c2.11,0,6.31-1,8.34-.34,3,1,1.63,6.06,1.56,8.45a1.53,1.53,0,0,0,1.5,1.5,117.54,117.54,0,0,0,25.37-1.14c6.24-1,12.65-1.23,14.28-8.22C313.63,374.44,310.74,373.64,310.3,375.52Z"/><path class="cls-5" d="M377.69,238.14a74.64,74.64,0,0,1,13.52,14.42s0,3.54-3.8,2.72c-1.16-.25-8.34-2.65-11.11-3.84"/><path class="cls-5" d="M377,238.85a95.7,95.7,0,0,1,7.66,7.2c1.27,1.35,6.32,5.73,5.35,7.4-1.61,2.76-11.36-2.11-13.42-3-1.19-.49-1.7,1.44-.53,1.93a84,84,0,0,0,10,3.52c2,.55,4.3.84,5.57-1.2,1.43-2.29-.22-3.77-1.69-5.64a82.48,82.48,0,0,0-11.51-11.66c-1-.83-2.4.58-1.41,1.41Z"/><path class="cls-5" d="M143.83,238.14a74.64,74.64,0,0,0-13.52,14.42s0,3.54,3.8,2.72c1.16-.25,8.34-2.65,11.11-3.84"/><path class="cls-5" d="M143.12,237.44a82.26,82.26,0,0,0-11.51,11.66c-1.47,1.87-3.12,3.34-1.69,5.64,1.28,2,3.56,1.74,5.57,1.2a80.37,80.37,0,0,0,10-3.52c1.17-.49.66-2.42-.53-1.93-1.57.65-12.55,5.71-13.42,3-.63-2,3.57-5.49,4.94-7a94.35,94.35,0,0,1,8.07-7.64c1-.84-.44-2.24-1.41-1.41Z"/><path class="cls-5" d="M377.14,237c-10.42-4.5-73.81-5.69-94.07,1.66-3,1.09-6.84,5.21-10,7.34-2.9,1.93-11.2,2-12.2,2h0s.08,0,0,0,0,0,0,0h0c-2,0-9.59-.08-12.49-2-3.2-2.13-7.21-6.26-10.21-7.34-20.26-7.34-83.7-6.16-94.13-1.66-1.89.81-.63,15.16,0,16.11s3.81,3,5.67,5.92c2.84,4.54,5.4,31,16.26,44.34,5.21,6.4,17.21,9.07,30.56,9.16,14.53.1,26.3-1.34,34.79-7.78,10.1-7.65,19.36-36.72,22.79-39.21a11,11,0,0,1,6.8-2.27h0s-.08,0,0,0,0,0,0,0v0a12.39,12.39,0,0,1,6.51,2.27c3.44,2.49,12.44,31.55,22.54,39.21,8.49,6.44,20.24,7.88,34.77,7.78,13.35-.09,25.34-2.76,30.55-9.16,10.86-13.33,13.42-39.8,16.26-44.34,1.86-3,5.09-5,5.68-5.92S379,237.86,377.14,237ZM226.63,302.31c-5.84,4.45-40.75,7.74-53.94-.87-10.86-7.09-15.16-35.14-10.27-49.59,5-14.62,72.81-13.49,78.66,1.34C247.55,269.62,235.55,295.52,226.63,302.31Zm121.79-.87c-13.19,8.61-48.1,5.31-53.94.87-8.92-6.79-20.93-32.69-14.45-49.12,5.85-14.84,73.7-16,78.66-1.34C363.58,266.3,359.27,294.36,348.41,301.45Z"/><path class="cls-22" d="M364.14,244.15a30,30,0,0,0,.49,3.47.45.45,0,0,0,.53.48l7.81,0a.62.62,0,0,0,.35-.07.63.63,0,0,0,.18-.54V243.9a.28.28,0,0,0-.36-.35l-8.47.31c-.22,0-.52.14-.43.34"/><path class="cls-22" d="M158.49,244.15a30,30,0,0,1-.49,3.47.45.45,0,0,1-.53.48l-7.81,0a.62.62,0,0,1-.35-.07.63.63,0,0,1-.18-.54V243.9a.28.28,0,0,1,.36-.35l8.47.31c.22,0,.52.14.43.34"/></g></g></svg>